<!DOCTYPE svg PUBLIC "-//W3C//DTD SVG 20010904//EN" "http://www.w3.org/TR/2001/REC-SVG-20010904/DTD/svg10.dtd">
<svg version="1.0" xmlns="http://www.w3.org/2000/svg" width="200px" height="165px" viewBox="0 0 2000 1650" preserveAspectRatio="xMidYMid meet">
<g id="layer101" fill="#000000" stroke="none">
<path d="M240 1430 c-16 -10 -3 -51 14 -44 28 11 38 -21 26 -88 -20 -119 -20 -118 -45 -118 -21 0 -24 8 -41 95 -17 93 -18 95 -46 95 -33 0 -34 -6 -13 -100 19 -87 19 -90 -10 -90 -20 0 -25 -5 -25 -25 0 -25 1 -25 91 -25 l91 0 -4 25 c-4 21 -1 25 17 25 19 0 23 7 30 53 l7 52 26 -52 c22 -45 30 -53 54 -53 15 0 28 2 28 5 0 14 -112 214 -128 227 -22 19 -56 28 -72 18z"/>
<path d="M410 1418 c0 -6 10 -63 22 -125 21 -105 24 -113 45 -113 13 0 23 5 23 12 0 9 3 9 12 0 21 -21 66 -14 84 13 39 60 -18 165 -90 165 -33 0 -36 2 -36 30 0 27 -3 30 -30 30 -16 0 -30 -5 -30 -12z m119 -112 c15 -18 19 -68 6 -72 -19 -7 -33 11 -40 49 -6 29 -4 37 8 37 8 0 20 -6 26 -14z"/>
<path d="M640 1350 c-39 -39 -17 -135 37 -159 61 -28 103 -3 103 60 l0 39 -55 0 c-46 0 -53 3 -48 16 4 12 14 15 39 11 27 -5 34 -2 40 15 8 26 -10 38 -58 38 -25 0 -45 -7 -58 -20z m90 -110 c0 -5 -6 -10 -14 -10 -8 0 -18 5 -21 10 -3 6 3 10 14 10 12 0 21 -4 21 -10z"/>
<path d="M794 1353 c2 -10 12 -56 21 -103 25 -129 18 -120 86 -120 86 0 118 38 87 104 -6 14 -19 28 -29 31 -18 6 -17 8 1 56 l20 49 -34 0 c-31 0 -34 -3 -46 -45 -13 -46 -32 -55 -38 -19 -9 59 -12 64 -43 64 -24 0 -29 -4 -25 -17z m140 -133 c16 -15 -3 -42 -26 -38 -17 2 -24 11 -26 31 -3 26 -1 28 20 22 13 -4 27 -11 32 -15z"/>
<path d="M1190 1364 c0 -3 7 -46 16 -95 15 -82 18 -89 40 -89 13 0 24 5 24 10 0 7 7 7 20 0 12 -6 33 -10 48 -8 34 4 39 29 22 121 -12 65 -13 67 -42 67 -27 0 -30 -2 -24 -25 15 -59 19 -115 8 -115 -19 0 -40 42 -47 93 -7 44 -9 47 -36 47 -16 0 -29 -3 -29 -6z"/>
<path d="M1384 1353 c2 -10 10 -45 16 -78 19 -99 13 -93 85 -93 82 -1 92 12 75 96 -18 91 -19 92 -51 92 -25 0 -29 -3 -24 -22 20 -88 22 -109 14 -114 -19 -11 -37 17 -48 76 -12 57 -13 60 -42 60 -24 0 -29 -4 -25 -17z"/>
<path d="M1601 1344 c-49 -63 4 -164 85 -164 36 0 51 14 55 50 5 57 2 60 -52 60 -36 0 -49 4 -46 13 2 6 17 12 33 12 16 0 34 7 41 15 17 21 -10 40 -58 40 -29 0 -42 -6 -58 -26z m94 -104 c-3 -5 -12 -10 -20 -10 -8 0 -17 5 -20 10 -4 6 5 10 20 10 15 0 24 -4 20 -10z"/>
<path d="M1750 1363 c1 -5 9 -46 18 -93 15 -74 21 -85 40 -88 12 -2 22 2 22 8 0 7 6 8 19 0 31 -16 51 -12 51 11 0 13 -10 23 -29 30 -31 11 -45 37 -56 102 -5 33 -9 37 -35 37 -17 0 -30 -3 -30 -7z"/>
<path d="M587 969 c-53 -85 -117 -194 -117 -202 0 -4 7 -7 15 -7 36 0 107 -40 202 -112 56 -43 107 -78 112 -78 5 0 45 59 89 131 l80 131 24 -38 c13 -22 48 -79 78 -128 30 -48 60 -90 67 -93 7 -3 53 27 101 66 93 74 175 121 211 121 12 0 21 2 21 6 0 3 -34 61 -76 130 l-77 126 -35 -7 c-55 -10 -103 -38 -189 -110 -43 -36 -81 -65 -84 -65 -16 0 -18 33 -4 53 8 12 15 27 15 34 0 19 -27 16 -39 -4 -10 -17 -12 -17 -26 1 -8 11 -20 16 -30 12 -15 -5 -15 -9 3 -38 19 -32 20 -58 2 -58 -4 0 -43 30 -86 66 -88 73 -132 99 -186 109 -36 7 -38 6 -71 -46z m153 -17 c0 -5 -6 -16 -13 -25 -10 -15 -15 -16 -31 -4 -15 11 -17 17 -7 35 10 18 15 20 31 12 11 -6 20 -14 20 -18z m504 -27 c-13 -9 -23 -10 -31 -3 -18 15 -16 35 4 47 13 7 21 4 31 -11 12 -17 12 -21 -4 -33z m-606 0 c9 -8 -13 -35 -28 -35 -23 0 -32 13 -24 34 4 12 13 15 28 10 11 -4 22 -8 24 -9z m718 -24 c-11 -17 -40 -13 -53 8 -11 17 -9 20 10 23 26 5 52 -15 43 -31z m-509 -62 c-11 -18 -12 -18 -31 1 -16 16 -17 21 -6 35 12 14 14 14 31 -1 15 -13 16 -20 6 -35z m282 32 c8 -14 6 -22 -9 -36 -17 -16 -19 -16 -30 6 -11 19 -10 25 6 36 22 16 21 17 33 -6z m-371 -41 c-9 -14 -16 -16 -30 -9 -19 10 -21 18 -12 43 5 14 8 14 29 0 20 -13 22 -19 13 -34z m466 24 c4 -10 -1 -22 -11 -30 -15 -11 -20 -11 -30 3 -9 12 -10 20 -2 30 15 18 36 16 43 -3z m-554 -22 c0 -4 -4 -13 -9 -21 -7 -10 -13 -11 -30 -2 -17 10 -19 15 -11 32 9 15 15 17 30 9 11 -6 20 -14 20 -18z m643 -19 c-22 -17 -32 -16 -40 3 -4 10 1 22 12 30 15 12 20 11 31 -4 11 -14 10 -19 -3 -29z m-746 -8 c6 -22 -15 -38 -41 -31 -23 6 -25 9 -13 27 12 20 48 23 54 4z m857 -2 c13 -32 -32 -44 -51 -14 -10 15 -10 21 0 24 25 11 45 7 51 -10z m-323 -70 c-13 -9 -19 -9 -30 2 -13 13 -12 17 4 35 l19 21 12 -23 c10 -18 9 -24 -5 -35z m-232 34 c8 -10 7 -18 -2 -31 -11 -15 -15 -15 -32 -2 -16 12 -17 16 -6 30 16 19 25 20 40 3z m-98 -10 c14 -11 15 -17 5 -35 -12 -22 -13 -22 -29 -4 -10 11 -15 26 -11 36 7 19 13 20 35 3z m429 -7 c8 -15 6 -21 -9 -30 -26 -13 -28 -13 -35 6 -6 17 9 44 25 44 5 0 13 -9 19 -20z m-520 -5 c9 -10 10 -22 4 -35 -8 -16 -11 -17 -27 -5 -13 9 -17 20 -12 34 8 25 18 27 35 6z m620 -25 c0 -3 -9 -11 -20 -17 -17 -11 -21 -10 -31 9 -10 18 -8 24 7 35 16 12 21 11 31 -4 7 -9 13 -19 13 -23z m-502 -99 c-7 -9 -12 -17 -13 -18 0 -1 -8 5 -18 12 -15 11 -17 17 -7 35 11 21 12 21 31 4 15 -14 17 -20 7 -33z m380 28 c10 -13 8 -19 -7 -33 -19 -17 -20 -17 -31 4 -10 18 -8 24 7 35 10 7 18 13 18 12 1 -1 6 -9 13 -18z"/>
<path d="M337 924 c-12 -13 -8 -52 7 -57 21 -8 49 16 44 39 -3 19 -38 31 -51 18z"/>
<path d="M1561 917 c-25 -31 13 -66 46 -42 14 11 16 18 7 32 -14 23 -38 28 -53 10z"/>
</g>
<g id="layer102" fill="#00509d" stroke="none">
<path d="M240 1430 c-16 -10 -3 -50 14 -44 7 3 19 -2 26 -11 12 -15 11 -29 -16 -167 -4 -21 -11 -28 -29 -28 -21 0 -24 8 -41 95 -17 93 -18 95 -46 95 -33 0 -32 4 -13 -97 19 -98 19 -93 -10 -93 -20 0 -25 -5 -25 -25 0 -25 1 -25 91 -25 l91 0 -4 25 c-4 21 -1 25 17 25 20 0 24 7 30 56 l7 57 25 -57 c23 -49 29 -56 54 -56 16 0 29 2 29 5 0 10 -94 181 -116 211 -23 32 -63 47 -84 34z"/>
<path d="M410 1418 c0 -6 10 -63 22 -125 21 -105 24 -113 45 -113 13 0 23 5 23 11 0 8 4 8 14 0 25 -21 69 -9 84 21 31 65 -23 158 -92 158 -33 0 -36 2 -36 30 0 27 -3 30 -30 30 -16 0 -30 -5 -30 -12z m118 -111 c6 -6 13 -24 17 -39 5 -21 3 -29 -10 -34 -22 -9 -32 3 -40 49 -6 29 -4 37 8 37 8 0 19 -6 25 -13z"/>
<path d="M640 1350 c-13 -13 -20 -33 -20 -61 0 -33 6 -47 34 -75 60 -60 126 -40 126 37 l0 39 -55 0 c-46 0 -53 3 -48 16 4 12 14 15 39 11 27 -5 34 -2 40 15 8 26 -10 38 -58 38 -25 0 -45 -7 -58 -20z m90 -110 c0 -5 -6 -10 -14 -10 -8 0 -18 5 -21 10 -3 6 3 10 14 10 12 0 21 -4 21 -10z"/>
<path d="M794 1353 c2 -10 12 -56 21 -103 25 -129 18 -120 86 -120 86 0 118 38 87 104 -6 14 -19 28 -29 31 -18 6 -17 8 1 56 l20 49 -34 0 c-31 0 -34 -3 -46 -45 -15 -55 -32 -53 -43 3 -7 38 -11 42 -38 42 -24 0 -29 -4 -25 -17z m140 -133 c16 -15 -3 -42 -26 -38 -17 2 -24 11 -26 31 -3 26 -1 28 20 22 13 -4 27 -11 32 -15z"/>
<path d="M1016 1363 c-9 -10 -7 -77 5 -133 10 -47 13 -50 41 -50 27 0 30 2 24 25 -14 56 -18 115 -9 115 18 0 31 -24 43 -82 11 -55 13 -58 41 -58 16 0 29 3 29 8 -1 4 -9 45 -18 92 l-18 85 -66 2 c-36 1 -68 -1 -72 -4z"/>
<path d="M1194 1340 c3 -17 11 -59 18 -95 10 -58 14 -65 35 -65 13 0 23 4 23 9 0 5 14 4 30 -2 35 -13 63 -2 69 29 2 10 -2 49 -9 86 -12 66 -13 68 -42 68 -27 0 -30 -2 -24 -25 15 -59 19 -115 8 -115 -19 0 -40 42 -47 93 -7 44 -9 47 -37 47 -29 0 -30 -2 -24 -30z"/>
<path d="M1384 1353 c2 -10 10 -45 16 -78 19 -99 13 -93 85 -93 82 -1 92 12 75 96 -18 90 -19 92 -49 92 l-29 0 14 -62 c7 -37 9 -67 4 -72 -17 -17 -37 14 -49 74 -12 57 -13 60 -42 60 -24 0 -29 -4 -25 -17z"/>
<path d="M1601 1344 c-49 -63 4 -164 85 -164 36 0 51 14 55 50 5 57 2 60 -51 60 -27 0 -50 4 -50 10 0 15 34 29 51 20 10 -6 19 -3 27 10 10 16 9 21 -7 30 -37 19 -88 12 -110 -16z m94 -104 c-3 -5 -12 -10 -20 -10 -8 0 -17 5 -20 10 -4 6 5 10 20 10 15 0 24 -4 20 -10z"/>
<path d="M1750 1363 c1 -5 9 -46 18 -93 15 -74 21 -85 40 -88 12 -2 22 2 22 8 0 7 6 8 19 0 31 -16 51 -12 51 10 0 13 -12 25 -34 34 -32 13 -36 20 -47 75 -11 58 -13 61 -40 61 -16 0 -29 -3 -29 -7z"/>
</g>


</svg>